<svg xmlns="http://www.w3.org/2000/svg" xmlns:xlink="http://www.w3.org/1999/xlink" preserveAspectRatio="xMidYMid" width="16" height="16" viewBox="0 0 16 16">
  <defs>
    <style>
      .cls-1 {
        fill: #fff;
        fill-rule: evenodd;
      }
    </style>
  </defs>
  <path d="M16.000,8.003 L14.000,8.003 L14.000,10.000 L14.000,10.000 L14.000,10.002 L12.667,10.002 L12.667,10.000 L12.000,10.000 L12.000,8.003 L10.667,8.003 L10.667,8.000 L10.000,8.000 L10.000,6.000 L12.000,6.000 L12.000,4.000 L14.000,4.000 L14.000,6.000 L16.000,6.000 L16.000,6.669 L16.000,6.669 L16.000,8.003 ZM9.363,1.367 C9.300,1.414 9.223,1.336 9.145,1.336 L8.768,1.336 C9.255,2.002 9.541,2.853 9.541,3.789 C9.541,4.820 9.017,5.899 8.069,6.643 C7.335,7.215 7.306,7.372 7.306,7.699 C7.314,7.878 7.827,8.464 8.390,8.861 C9.704,9.791 10.193,10.704 10.193,12.227 C10.193,13.814 8.986,15.190 7.119,15.733 C6.520,15.906 5.871,15.998 5.193,15.998 C4.436,15.998 3.708,15.918 3.031,15.746 C1.718,15.415 0.747,14.802 0.294,13.994 C0.099,13.643 0.000,13.302 0.000,12.915 C0.000,12.518 0.095,12.176 0.282,11.776 C1.002,10.244 2.898,9.336 4.998,9.336 C5.020,9.336 5.039,9.336 5.059,9.336 C4.889,8.669 4.805,8.599 4.805,8.271 C4.805,8.108 4.826,7.816 4.869,7.648 C2.666,7.597 1.018,5.980 1.018,3.852 C1.018,2.351 2.218,0.879 3.935,0.287 C4.449,0.111 4.973,0.002 5.489,0.002 L10.199,0.002 C10.360,0.002 10.502,0.098 10.552,0.250 C10.602,0.403 10.547,0.562 10.417,0.657 L9.363,1.367 ZM2.440,12.214 C2.440,13.420 3.644,14.496 5.183,14.496 C7.213,14.496 8.242,13.797 8.242,12.417 C8.242,12.287 8.225,12.151 8.193,12.016 C8.057,11.479 7.566,11.079 6.823,10.574 C6.721,10.504 6.614,10.365 6.505,10.289 C6.184,10.192 5.842,10.002 5.493,10.002 L5.452,10.002 C3.848,10.002 2.440,11.106 2.440,12.214 ZM7.110,4.039 C6.926,2.644 5.930,1.490 4.889,1.460 L4.847,1.474 C4.478,1.474 4.150,1.655 3.900,1.940 C3.511,2.383 3.347,3.143 3.450,3.922 C3.633,5.316 4.650,6.669 5.670,6.669 L5.686,6.669 C5.688,6.669 5.688,6.669 5.688,6.669 C6.071,6.669 6.395,6.404 6.646,6.117 C7.039,5.669 7.213,4.821 7.110,4.039 Z" class="cls-1"/>
</svg>
