<svg xmlns="http://www.w3.org/2000/svg" xmlns:xlink="http://www.w3.org/1999/xlink" preserveAspectRatio="xMidYMid" width="32" height="26" viewBox="0 0 32 26">
  <defs>
    <style>
      .cls-1 {
        fill: #2eacf0;
        fill-rule: evenodd;
      }
    </style>
  </defs>
  <path d="M31.995,3.074 C30.817,3.596 29.553,3.951 28.225,4.109 C29.581,3.296 30.620,2.012 31.112,0.477 C29.843,1.232 28.436,1.780 26.942,2.070 C25.745,0.792 24.038,-0.002 22.151,-0.002 C18.524,-0.002 15.585,2.938 15.585,6.562 C15.585,7.078 15.643,7.579 15.755,8.059 C10.299,7.785 5.460,5.172 2.222,1.197 C1.659,2.169 1.335,3.296 1.335,4.500 C1.335,6.777 2.850,8.785 4.612,9.966 C3.536,9.930 1.995,9.633 1.995,9.141 C1.995,9.172 1.995,9.200 1.995,9.225 C1.995,12.405 3.901,15.058 6.903,15.663 C6.352,15.812 5.595,15.894 4.996,15.894 C4.572,15.894 4.073,15.852 3.671,15.772 C4.506,18.382 6.888,20.281 9.759,20.337 C7.512,22.093 4.658,23.145 1.584,23.145 C1.052,23.145 0.519,23.112 0.006,23.055 C2.912,24.913 6.356,26.002 10.063,26.002 C22.141,26.002 28.740,15.999 28.740,7.323 C28.740,7.041 28.732,6.754 28.718,6.472 C30.004,5.548 31.116,4.391 31.995,3.074 Z" class="cls-1"/>
</svg>
