<svg xmlns="http://www.w3.org/2000/svg" xmlns:xlink="http://www.w3.org/1999/xlink" preserveAspectRatio="xMidYMid" width="14" height="16" viewBox="0 0 14 16">
  <defs>
    <style>
      .cls-1 {
        fill: #fff;
        fill-rule: evenodd;
      }
    </style>
  </defs>
  <path d="M11.000,-0.000 L11.000,5.656 C11.000,5.932 10.814,6.032 10.584,5.879 L9.500,4.787 L8.416,5.879 C8.187,6.032 8.000,5.932 8.000,5.656 L8.000,-0.000 L3.000,-0.000 C1.340,-0.000 0.000,1.340 0.000,3.000 L0.000,13.000 C0.000,14.660 1.340,16.000 3.000,16.000 L13.000,16.000 C13.553,16.000 14.000,15.553 14.000,15.000 L14.000,1.000 C14.000,0.447 13.553,-0.000 13.000,-0.000 L11.000,-0.000 ZM3.000,14.000 C2.450,14.000 2.000,13.550 2.000,13.000 C2.000,12.450 2.450,12.000 3.000,12.000 L12.000,12.000 L12.000,14.000 L3.000,14.000 Z" class="cls-1"/>
</svg>
