<svg xmlns="http://www.w3.org/2000/svg" xmlns:xlink="http://www.w3.org/1999/xlink" preserveAspectRatio="xMidYMid" width="32" height="32" viewBox="0 0 32 32">
  <defs>
    <style>
      .cls-1 {
        fill: #9a41d6;
        fill-rule: evenodd;
      }
    </style>
  </defs>
  <path d="M24.000,32.001 L8.000,32.001 C3.582,32.001 0.000,28.419 0.000,24.000 L0.000,8.000 C0.000,3.582 3.582,-0.000 8.000,-0.000 L24.000,-0.000 C28.418,-0.000 32.000,3.582 32.000,8.000 L32.000,24.000 C32.000,28.419 28.418,32.001 24.000,32.001 ZM16.000,6.000 C10.477,6.000 6.000,10.477 6.000,16.000 C6.000,21.522 10.477,26.000 16.000,26.000 C21.523,26.000 26.000,21.522 26.000,16.000 C26.000,10.477 21.523,6.000 16.000,6.000 ZM28.000,3.938 L24.000,3.938 L24.000,7.937 L28.000,7.937 L28.000,3.938 ZM16.000,22.000 C12.686,22.000 10.000,19.313 10.000,16.000 C10.000,12.687 12.686,10.000 16.000,10.000 C19.314,10.000 22.000,12.687 22.000,16.000 C22.000,19.313 19.314,22.000 16.000,22.000 Z" class="cls-1"/>
</svg>
