<svg xmlns="http://www.w3.org/2000/svg" xmlns:xlink="http://www.w3.org/1999/xlink" preserveAspectRatio="xMidYMid" width="32" height="26" viewBox="0 0 32 26">
  <defs>
    <style>
      .cls-1 {
        fill: #fff;
        fill-rule: evenodd;
      }
    </style>
  </defs>
  <path d="M31.995,3.074 C30.817,3.596 29.553,3.951 28.225,4.109 C29.580,3.297 30.620,2.012 31.112,0.478 C29.842,1.232 28.436,1.780 26.942,2.069 C25.745,0.792 24.038,-0.003 22.151,-0.003 C18.524,-0.003 15.585,2.938 15.585,6.562 C15.585,7.079 15.643,7.579 15.754,8.059 C10.299,7.785 5.460,5.173 2.221,1.198 C1.659,2.168 1.334,3.297 1.334,4.500 C1.334,6.778 2.850,8.784 4.612,9.966 C3.536,9.930 1.995,9.634 1.995,9.140 C1.995,9.172 1.995,9.200 1.995,9.226 C1.995,12.405 3.901,15.059 6.903,15.664 C6.352,15.812 5.595,15.894 4.996,15.894 C4.572,15.894 4.073,15.852 3.671,15.772 C4.506,18.382 6.887,20.280 9.758,20.336 C7.512,22.093 4.658,23.145 1.584,23.145 C1.052,23.145 0.519,23.112 0.005,23.055 C2.912,24.913 6.356,26.002 10.063,26.002 C22.141,26.002 28.740,15.998 28.740,7.323 C28.740,7.041 28.732,6.755 28.718,6.472 C30.003,5.548 31.116,4.391 31.995,3.074 Z" class="cls-1"/>
</svg>
